<svg width="16" height="17" viewBox="0 0 16 17" fill="none" xmlns="http://www.w3.org/2000/svg">
<path d="M8 0C12.1423 0 15.5 3.35775 15.5 7.5C15.5 11.6423 12.1423 15 8 15C3.85775 15 0.5 11.6423 0.5 7.5C0.5 3.35775 3.85775 0 8 0ZM8 1.5C6.4087 1.5 4.88258 2.13214 3.75736 3.25736C2.63214 4.38258 2 5.9087 2 7.5C2 9.0913 2.63214 10.6174 3.75736 11.7426C4.88258 12.8679 6.4087 13.5 8 13.5C9.5913 13.5 11.1174 12.8679 12.2426 11.7426C13.3679 10.6174 14 9.0913 14 7.5C14 5.9087 13.3679 4.38258 12.2426 3.25736C11.1174 2.13214 9.5913 1.5 8 1.5ZM8 3C8.1837 3.00002 8.361 3.06747 8.49828 3.18954C8.63556 3.31161 8.72326 3.47981 8.74475 3.66225L8.75 3.75V7.1895L10.7803 9.21975C10.9148 9.35472 10.9929 9.53583 10.9987 9.72629C11.0045 9.91675 10.9376 10.1023 10.8116 10.2452C10.6855 10.3881 10.5098 10.4777 10.3201 10.4958C10.1305 10.5139 9.94099 10.4591 9.79025 10.3425L9.71975 10.2803L7.46975 8.03025C7.35319 7.91359 7.27832 7.76175 7.25675 7.59825L7.25 7.5V3.75C7.25 3.55109 7.32902 3.36032 7.46967 3.21967C7.61032 3.07902 7.80109 3 8 3Z" fill="#FE3607"/>
</svg>
