<svg width="18" height="18" viewBox="0 0 18 18" fill="none" xmlns="http://www.w3.org/2000/svg">
<path d="M9.36217 1.07648V13.9746C10.0688 13.9359 10.6876 13.7918 11.1657 13.5598C11.7212 13.2891 12.0868 12.9164 12.2555 12.4348L12.8848 12.6492C12.6528 13.3207 12.136 13.834 11.4575 14.1574C10.8669 14.4492 10.1497 14.6074 9.36217 14.6391V16.9207C10.9055 16.8117 12.3083 15.975 13.3594 14.6391C14.4809 13.2082 15.1876 11.2113 15.1876 8.99999C15.1876 6.78866 14.4809 4.79179 13.3594 3.35952C12.3083 2.02253 10.9055 1.18265 9.36217 1.07648ZM8.6942 1.10988C3.10119 1.35702 2.53271 7.8539 2.53271 9.59062C2.53271 10.7719 4.1942 10.2445 4.30318 11.3625L4.89381 16.3055C4.89381 16.8434 7.46725 16.9629 8.6942 16.9137V15.4934H8.10709V14.6461H7.58678V15.4934H6.92232V14.6461H6.40904V15.4934H5.74459V14.6461H5.11881V13.9816H5.74459V13.1344H6.40904V13.9816H6.92232V13.1344H7.58678V13.9816H8.10709V13.1344H8.6942V12.034L7.25631 12.3961L8.6942 10.1144V1.10988ZM6.08912 7.96991C6.99615 7.96991 7.91725 8.11406 7.99459 8.40937C8.29693 9.54843 8.14928 10.4414 7.40396 10.7719C5.17506 11.7492 4.30318 10.1812 4.30318 8.40937C4.30318 8.11406 5.18912 7.96991 6.08912 7.96991ZM11.6825 8.07538C12.354 8.07538 12.9024 8.62734 12.9024 9.29531C12.9024 9.96327 12.354 10.5117 11.6825 10.5117C11.018 10.5117 10.4661 9.96327 10.4661 9.29531C10.4661 8.62734 11.018 8.07538 11.6825 8.07538ZM11.6825 8.74335C11.3766 8.74335 11.1305 8.98593 11.1305 9.29531C11.1305 9.60468 11.3766 9.85077 11.6825 9.85077C11.9954 9.85077 12.2379 9.60468 12.2379 9.29531C12.2379 8.98593 11.9954 8.74335 11.6825 8.74335Z" fill="#080A0C"/>
</svg>
