<svg width="18" height="18" viewBox="0 0 18 18" fill="none" xmlns="http://www.w3.org/2000/svg">
<g clip-path="url(#clip0_72_5)">
<path d="M7.20056 0.930573C5.51893 1.99043 4.89575 3.37478 4.22972 4.97333C3.55067 6.60296 2.83654 8.44009 0.949463 10.1327C1.16339 10.5154 1.64577 10.8861 2.3369 11.2013C2.71575 10.873 3.09586 10.5051 3.45716 10.1361L2.31219 10.3651L2.18802 9.74449C2.98234 9.55788 3.82546 9.41698 4.55723 9.27062C4.60997 8.84003 4.68851 8.48881 4.81521 8.10888C6.20494 7.79139 7.7348 7.23247 9.0001 7.21929C10.7375 7.37721 11.8935 7.73995 13.2002 8.11321C13.3 8.50256 13.379 8.92205 13.4206 9.26616C14.176 9.36783 14.999 9.58186 15.8122 9.74449L15.688 10.3651L14.543 10.1361C14.9043 10.5051 15.2845 10.873 15.6633 11.2013C16.3544 10.8861 16.8368 10.5154 17.0507 10.1327C15.1637 8.44012 14.4495 6.60296 13.7705 4.97333C13.1045 3.37478 12.4813 1.99043 10.7997 0.930573C10.4147 1.5488 9.73944 2.48272 9.0001 2.49619C8.14468 2.39399 7.61119 1.60258 7.20053 0.930573H7.20056ZM6.01182 2.60165H6.64463V3.19369L7.67239 3.75425C7.97544 3.29332 8.44713 2.98837 9.0001 2.98837C9.55308 2.98837 10.0248 3.29332 10.3278 3.75425L11.3556 3.19369V2.60165H11.9884V3.129H12.5157V3.76181H11.6354L10.5928 4.33057C10.6886 4.69612 10.712 5.03566 10.6555 5.38139L12.4558 6.36337H13.2189V6.99619H12.6915V7.52353H12.0587V6.86758L10.4608 5.99603C10.1749 6.58524 9.64216 6.99619 9.0001 6.99619C8.35805 6.99619 7.82536 6.58524 7.5394 5.99599L5.94151 6.86762V7.52356H5.3087V6.99622H4.78135V6.36341H5.54442L7.34477 5.38142C7.28782 5.02905 7.31608 4.6475 7.40742 4.3306L6.36476 3.76185H5.48448V3.12903H6.01182V2.60165ZM9.0001 3.62119C8.45332 3.62119 7.94542 4.19922 7.94542 4.99228C7.94542 5.78533 8.45332 6.36337 9.0001 6.36337C9.54689 6.36337 10.0548 5.78533 10.0548 4.99228C10.0548 4.19922 9.54689 3.62119 9.0001 3.62119ZM8.1212 4.42978H8.75401V4.99228H8.1212V4.42978ZM9.2462 4.42978H9.87901V4.99228H9.2462V4.42978ZM8.4376 5.23837H9.5626V5.87119H8.4376V5.23837ZM5.32023 8.62304C5.27699 8.78223 5.24299 8.9597 5.21669 9.15074C7.95104 8.57115 9.97456 8.55835 12.7625 9.14771C12.7372 8.96845 12.7064 8.79211 12.6685 8.61984C9.80247 7.60643 8.19007 7.61233 5.32023 8.62304ZM5.15985 9.79803C5.14494 10.1306 5.14807 10.4899 5.16607 10.864C5.33317 10.8653 5.4946 10.8651 5.65217 10.8636C5.88385 10.4081 7.54358 10.0237 8.30974 10.6388C9.40043 10.4271 10.199 10.0644 10.9898 9.54108C8.99237 9.18364 6.71604 9.57574 5.15985 9.79803ZM8.56575 11.2181C8.46872 12.2063 7.78985 12.8673 6.7501 12.8673C6.13803 12.8673 5.76408 12.3281 5.65717 11.4955C5.51102 11.4971 5.36263 11.4979 5.20935 11.497C5.32388 12.6135 5.52684 13.8097 5.74404 14.795C6.19509 14.7572 6.81198 14.5178 7.36987 14.2079C7.90347 13.9115 8.39517 13.5522 8.67266 13.3037C8.42199 13.2821 8.17544 13.2375 7.93396 13.1729L8.0975 12.5617C8.68507 12.7189 9.27323 12.7391 9.89866 12.5627L10.0703 13.1718C9.82813 13.2401 9.57991 13.2847 9.32913 13.3051C9.6069 13.5535 10.0978 13.912 10.6303 14.2079C11.1902 14.5189 11.8095 14.759 12.2609 14.7955C12.6297 13.1913 12.9301 11.4012 12.8282 9.79631L12.0578 9.68627C11.4168 10.0372 9.93319 10.9264 8.56575 11.2181ZM13.4749 9.92245C13.4905 10.2321 13.4936 10.5451 13.4839 10.8603C13.7508 11.1768 14.0585 11.4908 14.4065 11.803C14.2999 11.7433 14.1794 11.7071 14.0489 11.7071C13.4227 11.7795 13.1616 12.3498 13.1564 12.8673C13.1765 13.4296 13.5041 14.0152 14.0489 14.0274C14.1094 14.0274 14.1676 14.0194 14.2234 14.0051C14.409 14.7462 14.6998 15.2827 15.2896 15.7406C14.5366 16.2894 13.0559 16.3419 12.2653 16.2514C12.0798 16.4371 11.889 16.6174 11.6931 16.7922C13.3373 16.9975 15.5686 17.0071 16.1608 15.566C15.4672 15.1642 14.9912 14.4964 14.8488 13.9189C15.8091 14.131 16.6143 13.572 16.629 12.698C15.4313 12.3048 14.0626 10.4518 13.4749 9.92245ZM4.51533 9.92445C3.47706 11.0469 2.40409 12.0094 1.19099 12.8181C1.90058 13.5913 3.07062 13.6723 3.83456 13.4635C2.90443 14.8982 2.21576 15.5099 0.973896 16.3379C2.7051 16.831 4.77931 17.1749 6.31733 16.8014C6.12534 16.6304 5.93823 16.454 5.75624 16.2723C4.64266 16.4116 3.4438 16.3361 2.40711 16.1105C3.72347 15.0841 4.27124 14.0315 4.76567 13.0435C4.7334 12.8378 4.70363 12.6318 4.67638 12.4254L4.35863 12.5843C3.53622 12.9955 2.75815 13.0488 2.2591 12.8553C3.20048 12.1927 3.95771 11.5255 4.5276 10.8469C4.51153 10.5293 4.50738 10.2212 4.5154 9.92445H4.51533ZM11.7998 10.6173L12.2472 11.0647C12.0221 11.2899 11.7482 11.438 11.461 11.5355V12.129H10.336V11.7161C10.1179 11.7235 9.92288 11.7199 9.77354 11.7199V11.0871C10.336 11.0871 11.3865 11.0306 11.7998 10.6173ZM14.6785 12.0392C15.0624 12.3636 15.4896 12.6863 15.9608 13.0079C15.7403 13.402 15.1983 13.3705 14.8864 13.2768C14.9932 12.8677 14.904 12.3463 14.6785 12.0392ZM14.0489 12.3399C14.2459 12.4072 14.3067 12.6896 14.3087 12.8673C14.2934 13.01 14.2543 13.3901 14.0489 13.3946C13.8519 13.3274 13.7911 13.0449 13.7892 12.8673C13.8045 12.7245 13.8436 12.3445 14.0489 12.3399ZM9.0001 14.0313C8.77971 14.333 8.5031 14.6162 8.19573 14.8706C8.51055 14.7576 8.74487 14.6934 9.00091 14.6941C9.25794 14.6948 9.49194 14.7602 9.80768 14.8733C9.49901 14.6182 9.22127 14.3341 9.0001 14.0313ZM10.1873 15.1619L10.0143 15.6245C9.58549 15.4642 9.33834 15.376 9.15563 15.3427L10.3068 17.0694C10.827 16.7241 11.2813 16.3314 11.7156 15.9058C11.1292 15.7138 10.6259 15.4685 10.1873 15.1619V15.1619ZM7.81217 15.1624C7.33264 15.4721 6.7758 15.774 6.28463 15.9058C6.74546 16.35 7.18843 16.7377 7.69342 17.0694L8.84542 15.3414C8.6631 15.3735 8.41711 15.4611 7.98729 15.6241L7.81217 15.1624Z" fill="white"/>
</g>
<defs>
<clipPath id="clip0_72_5">
<rect width="18" height="18" fill="white"/>
</clipPath>
</defs>
</svg>
