<svg width="18" height="19" viewBox="0 0 18 19" fill="none" xmlns="http://www.w3.org/2000/svg">
<path d="M10.5 8.56175V5.78975C10.5 5.165 10.3868 5.03975 9.76502 5.03975L8.00252 5C7.45352 5 7.17902 5 7.06802 5.17775C6.95702 5.3555 7.08002 5.59925 7.32527 6.08525C7.46177 6.35525 7.53527 6.551 7.53527 6.854V8.849C7.53527 9.479 7.53527 9.79475 7.29527 9.8885C7.05527 9.9815 6.85652 9.77 6.45752 9.347C5.48252 8.309 4.97402 7.013 4.64027 5.6C4.57127 5.3075 4.53677 5.16125 4.43327 5.08025C4.32977 4.99925 4.18202 5 3.88802 5H2.23802C1.87652 5 1.69577 5 1.58252 5.1275C1.47002 5.25575 1.49177 5.41925 1.53527 5.7455C1.93127 8.69075 4.52102 13.52 9.30527 13.9805C10.1528 14.0615 10.5 13.8327 10.5 12.9042C10.5 12.3777 10.4888 11.5272 11.151 11.4155C11.4983 11.357 11.7315 11.4807 12.1193 11.8055C12.7913 12.3695 13.1438 13.058 13.389 13.5807C13.5518 13.9272 13.6725 14 14.055 14H15.6105C16.3965 14 16.6103 13.808 16.26 13.07C15.8642 12.2423 15.3038 11.5041 14.613 10.9002C14.136 10.49 13.8983 10.2852 13.8855 10.1337C13.8713 9.983 14.046 9.76925 14.3955 9.34175C15.0705 8.51525 15.99 7.2185 16.419 5.84225C16.632 5.15975 16.4318 5 15.741 5H14.3438C13.6665 5 13.6673 4.97675 13.5075 5.74475C13.248 6.9905 12.399 8.18825 11.601 9.0035C11.2223 9.3905 10.9935 9.62375 10.7573 9.5285C10.521 9.43325 10.5 9.14375 10.5 8.56175Z" stroke="#FE3607" stroke-width="1.375" stroke-linecap="round" stroke-linejoin="round"/>
</svg>
